<svg width="50" height="50" viewBox="0 0 50 50" fill="none" xmlns="http://www.w3.org/2000/svg">
<path d="M9.89583 3.90625C7.45082 3.90625 5.46875 5.88832 5.46875 8.33333C5.46875 10.7783 7.45082 12.7604 9.89583 12.7604C12.3408 12.7604 14.3229 10.7783 14.3229 8.33333C14.3229 5.88832 12.3408 3.90625 9.89583 3.90625Z" fill="#BBBBBB"/>
<path d="M5.72917 16.4063C5.58534 16.4063 5.46875 16.5228 5.46875 16.6667V43.75C5.46875 43.8938 5.58534 44.0104 5.72917 44.0104H14.0625C14.2063 44.0104 14.3229 43.8938 14.3229 43.75V16.6667C14.3229 16.5228 14.2063 16.4063 14.0625 16.4063H5.72917Z" fill="#BBBBBB"/>
<path d="M19.2708 16.4063C19.127 16.4063 19.0104 16.5228 19.0104 16.6667V43.75C19.0104 43.8938 19.127 44.0104 19.2708 44.0104H27.6042C27.748 44.0104 27.8646 43.8938 27.8646 43.75V29.1667C27.8646 28.1307 28.2761 27.1371 29.0087 26.4045C29.7413 25.672 30.7348 25.2604 31.7708 25.2604C32.8068 25.2604 33.8004 25.672 34.533 26.4045C35.2655 27.1371 35.6771 28.1307 35.6771 29.1667V43.75C35.6771 43.8938 35.7937 44.0104 35.9375 44.0104H44.2708C44.4147 44.0104 44.5312 43.8938 44.5312 43.75V25.7922C44.5312 20.7365 40.1341 16.7812 35.1038 17.2385C33.5525 17.3796 32.0187 17.7652 30.5864 18.3791L27.8646 19.5455V16.6667C27.8646 16.5228 27.748 16.4063 27.6042 16.4063H19.2708Z" fill="#BBBBBB"/>
</svg>
