<svg width="50" height="50" viewBox="0 0 50 50" fill="none" xmlns="http://www.w3.org/2000/svg">
<path d="M45.437 12.9734C45.5577 12.8051 45.3794 12.5879 45.1863 12.6627C43.8139 13.1947 42.3797 13.5536 40.9167 13.7304C42.5457 12.7573 43.8027 11.2758 44.4997 9.52196C44.5707 9.34329 44.3756 9.18373 44.2073 9.27668C42.6933 10.1128 41.0605 10.7149 39.3644 11.0616C39.2934 11.0761 39.2202 11.052 39.1703 10.9994C37.8975 9.65629 36.222 8.76205 34.3954 8.45303C32.5305 8.13752 30.6136 8.44992 28.9454 9.34124C27.2772 10.2326 25.9519 11.6524 25.1776 13.378C24.4413 15.0188 24.2426 16.8477 24.6058 18.6042C24.634 18.7405 24.5273 18.8692 24.3884 18.8606C21.0883 18.6556 17.8639 17.7778 14.9139 16.2801C11.9713 14.7862 9.36565 12.708 7.2555 10.1735C7.16185 10.0611 6.98435 10.0756 6.91612 10.2051C6.25951 11.4511 5.91573 12.8398 5.91666 14.2513C5.914 15.6562 6.25878 17.04 6.92032 18.2795C7.58186 19.519 8.53962 20.5757 9.70833 21.3554C8.4689 21.3217 7.25364 21.0153 6.14843 20.4597C6.006 20.3882 5.83515 20.4901 5.84256 20.6493C5.92874 22.5019 6.60885 24.3618 7.78607 25.7887C9.03882 27.3072 10.7776 28.3463 12.7083 28.7304C11.9651 28.9566 11.1935 29.0759 10.4167 29.0846C9.99387 29.0797 9.5719 29.0485 9.1532 28.9912C8.99795 28.97 8.87118 29.1175 8.92553 29.2644C9.5014 30.8217 10.5187 32.1805 11.8564 33.1724C13.2865 34.2329 15.0116 34.8212 16.7917 34.8554C13.7858 37.2206 10.0748 38.5114 6.25 38.5221C5.85699 38.5234 5.46416 38.5107 5.07225 38.4839C4.8514 38.4689 4.74983 38.7631 4.94019 38.8761C8.66679 41.0876 12.9262 42.2566 17.2708 42.2513C20.4785 42.2846 23.6607 41.6784 26.6315 40.4681C29.6023 39.2578 32.3021 37.4677 34.5733 35.2023C36.8445 32.9369 38.6416 30.2417 39.8595 27.274C41.0774 24.3063 41.6917 21.1257 41.6667 17.9179V16.9183C41.6667 16.8525 41.6978 16.7907 41.7503 16.751C43.1634 15.6841 44.4061 14.4102 45.437 12.9734Z" fill="#BBBBBB"/>
</svg>
